<?xml version="1.0" encoding="utf-8"?>
<!-- Generator: Adobe Illustrator 16.0.0, SVG Export Plug-In . SVG Version: 6.00 Build 0)  -->
<!DOCTYPE svg PUBLIC "-//W3C//DTD SVG 1.1//EN" "http://www.w3.org/Graphics/SVG/1.1/DTD/svg11.dtd">
<svg version="1.1" id="Layer_1" xmlns="http://www.w3.org/2000/svg" xmlns:xlink="http://www.w3.org/1999/xlink" x="0px" y="0px"
	 width="91.728px" height="69.272px" viewBox="0 0 91.728 69.272" enable-background="new 0 0 91.728 69.272" xml:space="preserve">
<g>
	<g>
		<path fill="#231F20" d="M46.881,1.843c0,0,11.924,2.11,14.951,3.668c1.638,0.845,13.848,5.961,19.717,14.949
			c4.371,6.69,6.42,12.105,6.97,15.59c0.551,3.485,1.834,7.336,1.834,7.887s-0.549,2.201-1.468,3.302
			c-0.916,1.102,0.184,4.403-1.649,7.155c-1.835,2.75-6.972,10.638-19.811,12.655s-21.644,0.551-31.915-5.687
			c-10.271-6.236-22.193-15.59-27.88-24.762c-5.687-9.17-6.787-15.958-6.052-18.709c0.733-2.751,2.751-2.018,3.117-5.319
			c0.367-3.302,1.285-6.419,5.503-7.52C14.415,3.953,41.02,0.04,46.881,1.843z"/>
		<path fill="#231F20" d="M57.617,69.272c-8.225,0-15.049-2.013-22.821-6.731c-4.78-2.903-20.947-13.296-28.335-25.215
			c-5.93-9.564-7.053-16.637-6.213-19.788c0.442-1.661,1.313-2.426,1.95-2.984c0.617-0.542,0.989-0.869,1.129-2.132
			c0.396-3.564,1.48-7.385,6.522-8.7C13.193,2.85,31.678,0,41.857,0c2.435,0,4.185,0.165,5.342,0.502
			C48.767,0.782,59.396,2.711,62.46,4.29c0.146,0.076,0.386,0.188,0.702,0.338c9.301,4.397,15.873,9.471,19.538,15.082
			c5.313,8.135,6.775,13.596,7.177,16.127c0.329,2.085,0.946,4.368,1.355,5.88c0.376,1.392,0.495,1.849,0.495,2.222
			c0,0.961-0.726,2.898-1.769,4.162c-0.104,0.221-0.132,0.964-0.154,1.511c-0.058,1.526-0.142,3.617-1.425,5.547l-0.057,0.086
			c-2.02,3.028-7.38,11.075-20.685,13.165C63.94,68.991,60.662,69.272,57.617,69.272z M41.857,2.751
			c-9.564,0-27.901,2.743-31.313,3.634c-3.24,0.845-4.118,3.052-4.483,6.34c-0.258,2.324-1.25,3.195-2.048,3.896
			c-0.53,0.465-0.88,0.773-1.108,1.626c-0.523,1.965,0.034,8.178,5.894,17.628c4.769,7.693,15.021,16.78,27.425,24.313
			c7.312,4.438,13.71,6.332,21.394,6.332c2.9,0,6.036-0.271,9.594-0.83c12.113-1.902,16.987-9.218,18.822-11.974l0.057-0.085
			c0.857-1.286,0.915-2.797,0.968-4.129c0.046-1.195,0.091-2.325,0.771-3.143c0.655-0.788,1.083-1.989,1.143-2.394
			c-0.049-0.255-0.231-0.931-0.393-1.534c-0.425-1.566-1.066-3.937-1.419-6.165c-0.296-1.864-1.542-7.062-6.764-15.055
			c-3.381-5.178-9.574-9.922-18.409-14.098c-0.354-0.167-0.621-0.294-0.787-0.38c-2.33-1.201-11.299-2.961-14.558-3.536l-0.166-0.04
			C45.873,2.973,44.581,2.751,41.857,2.751z"/>
	</g>
	<g>
		<path fill="#231F20" d="M75.938,52.15c-0.345,0-0.74-0.062-1.211-0.192c-1.153-0.313-1.675-0.863-2.056-1.268
			c-0.299-0.313-0.493-0.515-0.833-0.485c-0.246,0.021-0.485,0.127-0.74,0.243c-0.328,0.146-0.703,0.312-1.15,0.312
			c-0.478,0-0.971-0.189-1.504-0.58c-1.464-1.069-1.718-0.993-1.978-0.96c-0.043,0.005-0.088,0.009-0.135,0.012
			c-0.044,0.011-0.186,0.137-0.299,0.236c-0.333,0.296-0.838,0.737-1.441,0.737c-0.532,0-1.038-0.347-1.499-1.034
			c-0.521-0.773-0.862-1.104-1.141-1.104c-0.19,0-0.394,0.155-0.653,0.352c-0.287,0.22-0.646,0.494-1.162,0.696
			c-0.2,0.079-0.41,0.118-0.618,0.118c-1.612,0-2.896-2.359-3.036-2.628c-0.105-0.2-0.318-0.293-0.669-0.293
			s-0.778,0.092-1.231,0.19c-0.236,0.051-0.477,0.103-0.706,0.142c-0.84,0.137-1.037-0.146-1.4-0.634
			c-0.176-0.234-0.393-0.525-0.738-0.874c-1.102-1.103-1.436-1.435-2.676-1.612c-0.09-0.012-0.177-0.02-0.261-0.02
			c-0.358,0-0.588,0.121-0.788,0.227c-0.16,0.085-0.311,0.164-0.49,0.164c-0.227,0-0.455-0.126-0.739-0.41
			c-0.304-0.304-0.441-0.651-0.561-0.956c-0.263-0.674-0.471-1.204-2.274-1.204c-2.915,0-3.271-1.073-3.617-2.111
			c-0.246-0.739-0.861-1.069-1.998-1.069c-0.284,0-0.603,0.021-0.973,0.063c-1.655,0.184-1.94-0.833-2.567-3.012l-0.149-0.521
			c-0.222-0.761-0.535-0.849-0.751-0.849c-0.338,0-0.759,0.239-1.203,0.491c-0.521,0.297-1.059,0.604-1.588,0.604
			c-0.222,0-0.428-0.057-0.614-0.165c-0.656-0.387-0.958-0.869-1.225-1.294c-0.342-0.545-0.588-0.941-1.457-0.941
			c-0.36,0-0.63,0.027-0.847,0.049c-0.147,0.015-0.269,0.025-0.374,0.025c-0.541,0-0.713-0.312-1.289-1.501
			c-0.455-0.945-0.82-1.072-1.117-1.072c-0.339,0-0.751,0.192-1.273,0.435c-0.27,0.126-0.576,0.269-0.918,0.404
			c-0.543,0.218-0.87,0.311-1.094,0.311c-0.364,0-0.471-0.242-0.583-0.499c-0.092-0.213-0.207-0.475-0.491-0.758
			c-0.299-0.299-0.484-0.598-0.647-0.86c-0.35-0.563-0.583-0.935-1.638-0.935c-0.2,0-0.366,0.005-0.508,0.009
			c-0.106,0.004-0.199,0.007-0.28,0.007c-0.621,0-0.693-0.203-1.046-1.176c-0.121-0.337-0.273-0.756-0.495-1.308
			c-0.335-0.838-0.504-1.4-0.605-1.736c-0.063-0.208-0.117-0.39-0.151-0.422c-0.006,0.009-0.097,0.056-0.177,0.098
			c-0.125,0.066-0.297,0.153-0.539,0.247c-0.122,0.048-0.23,0.07-0.33,0.07c0,0,0,0,0,0c-0.625,0-0.676-0.793-0.739-1.797
			c-0.047-0.752-0.102-1.605-0.392-2.331c-0.33-0.821-0.418-2.247-0.266-4.238l0.015-0.187l0.173,0.068
			c0.509,0.203,1.031,0.438,1.551,0.698c1.319,0.659,1.954,0.947,2.505,0.947c0.543,0,1.008-0.285,1.938-0.936
			c0.455-0.318,0.897-0.479,1.319-0.479c1.169,0,2.018,1.251,2.018,2.974c0,1.845,0.049,2.976,1.035,2.976
			c0.221,0,0.488-0.056,0.797-0.168c0.339-0.123,0.637-0.248,0.901-0.356c0.507-0.212,0.875-0.363,1.171-0.363
			c0.609,0,0.778,0.644,0.863,1.754c0.109,1.41,0.353,1.528,0.593,1.528c0.21,0,0.507-0.113,0.882-0.255
			c0.24-0.091,0.511-0.195,0.823-0.292c0.801-0.254,1.484-0.082,1.914,0.467c0.374,0.477,0.469,1.132,0.371,1.532
			c-0.107,0.428-0.307,1.224-0.047,1.557c0.136,0.174,0.403,0.209,0.796,0.112c0.384-0.097,0.752-0.249,1.108-0.396
			c0.481-0.196,0.896-0.368,1.259-0.368c0.476,0,0.776,0.302,0.918,0.924c0.13,0.562,0.084,1.027,0.05,1.367
			c-0.028,0.279-0.049,0.481,0.038,0.576c0.107,0.12,0.432,0.151,1.051,0.094c1.979-0.177,2.953,1.83,3.359,2.667l0.079,0.16
			c0.178,0.358,0.523,0.407,1.045,0.482c0.398,0.056,0.894,0.127,1.453,0.368c0.931,0.398,1.021,0.479,1.455,0.87
			c0.171,0.154,0.407,0.365,0.779,0.669c0.928,0.758,1.838,1.339,2.72,1.901c0.324,0.207,0.639,0.407,0.939,0.608l2.751,1.832
			c1.386,0.924,1.766,1.304,1.947,1.485c0.158,0.158,0.158,0.158,0.767,0.333c1.253,0.358,2.534,0.544,4.193,0.729
			c1.301,0.144,2.157,0.729,3.146,1.407c0.3,0.205,0.61,0.418,0.95,0.631c0.495,0.309,0.728,0.558,0.914,0.76
			c0.351,0.377,0.528,0.566,2.324,0.684c0.636,0.045,1.133,0.057,1.534,0.068c1.367,0.036,1.88,0.05,4.017,1.047
			c1.398,0.652,1.536,0.792,1.621,0.875c0.043,0.045,0.085,0.06,1.116,0.403c0.482,0.16,0.851,0.297,1.162,0.411
			c1.108,0.404,1.48,0.539,3.754,0.683l0.139,0.009l-0.01,0.137C78.06,51.067,77.382,52.15,75.938,52.15z M71.904,49.927
			c0.423,0,0.674,0.268,0.968,0.575c0.379,0.4,0.851,0.898,1.927,1.192c0.446,0.121,0.819,0.182,1.14,0.182
			c0.876,0,1.795-0.389,1.979-3.223c-2.192-0.142-2.61-0.297-3.692-0.69c-0.311-0.115-0.678-0.248-1.158-0.407
			c-1.13-0.378-1.13-0.378-1.222-0.47c-0.059-0.059-0.19-0.19-1.545-0.823c-2.085-0.971-2.542-0.982-3.904-1.019
			c-0.403-0.011-0.905-0.024-1.548-0.067c-1.827-0.121-2.088-0.323-2.506-0.773c-0.176-0.188-0.394-0.423-0.858-0.714
			c-0.346-0.217-0.659-0.43-0.958-0.637c-0.961-0.656-1.789-1.226-3.021-1.36c-1.675-0.188-2.969-0.376-4.24-0.739
			c-0.652-0.187-0.677-0.193-0.886-0.402c-0.174-0.177-0.54-0.54-1.903-1.451l-2.752-1.832c-0.299-0.199-0.612-0.398-0.935-0.605
			c-0.846-0.54-1.805-1.151-2.746-1.92c-0.377-0.309-0.615-0.521-0.789-0.677c-0.415-0.374-0.491-0.44-1.379-0.822
			c-0.526-0.225-0.982-0.29-1.384-0.35c-0.563-0.079-1.009-0.144-1.252-0.631l-0.08-0.163c-0.414-0.855-1.291-2.675-3.086-2.512
			c-0.207,0.018-0.38,0.027-0.527,0.027c-0.388,0-0.62-0.066-0.752-0.212c-0.168-0.185-0.141-0.452-0.107-0.788
			c0.033-0.337,0.075-0.759-0.045-1.277c-0.144-0.626-0.41-0.71-0.65-0.71c-0.308,0-0.719,0.168-1.153,0.348
			c-0.348,0.143-0.744,0.305-1.146,0.407c-0.513,0.128-0.874,0.055-1.082-0.21c-0.341-0.438-0.129-1.286-0.001-1.792
			c0.08-0.326-0.005-0.892-0.321-1.295c-0.362-0.462-0.92-0.594-1.615-0.375c-0.303,0.096-0.57,0.197-0.806,0.288
			c-0.403,0.153-0.721,0.273-0.981,0.273c-0.61,0-0.78-0.653-0.868-1.782c-0.097-1.256-0.289-1.501-0.589-1.501
			c-0.242,0-0.605,0.151-1.066,0.343c-0.265,0.109-0.566,0.235-0.911,0.36c-0.344,0.125-0.636,0.186-0.891,0.186
			c-1.311,0-1.311-1.506-1.311-3.251c0-1.538-0.75-2.698-1.743-2.698c-0.365,0-0.754,0.145-1.161,0.428
			c-0.9,0.631-1.441,0.987-2.096,0.987c-0.642,0-1.38-0.352-2.629-0.975c-0.453-0.228-0.909-0.435-1.355-0.618
			c-0.128,1.827-0.039,3.183,0.259,3.926c0.308,0.768,0.363,1.644,0.413,2.417c0.061,0.955,0.115,1.539,0.464,1.539
			c0.065,0,0.143-0.018,0.231-0.052c0.228-0.087,0.393-0.171,0.512-0.234c0.141-0.072,0.233-0.12,0.325-0.12
			c0.209,0,0.263,0.178,0.393,0.609c0.106,0.353,0.268,0.886,0.598,1.713c0.223,0.557,0.375,0.978,0.498,1.317
			c0.354,0.978,0.368,0.996,0.788,0.996c0.078,0,0.168-0.003,0.271-0.006c0.144-0.005,0.313-0.011,0.517-0.011
			c1.21,0,1.516,0.495,1.872,1.065c0.156,0.25,0.332,0.534,0.608,0.811c0.32,0.32,0.453,0.621,0.549,0.842
			c0.113,0.259,0.155,0.333,0.331,0.333c0.185,0,0.489-0.089,0.991-0.29c0.336-0.134,0.639-0.275,0.905-0.398
			c0.553-0.258,0.99-0.461,1.389-0.461c0.542,0,0.95,0.366,1.364,1.228c0.584,1.208,0.691,1.346,1.041,1.346
			c0.098,0,0.209-0.011,0.347-0.024c0.223-0.022,0.5-0.05,0.874-0.05c1.021,0,1.346,0.52,1.69,1.069
			c0.25,0.397,0.533,0.851,1.131,1.202c0.145,0.087,0.299,0.129,0.474,0.129c0.457,0,0.962-0.29,1.453-0.567
			c0.476-0.271,0.928-0.529,1.339-0.529c0.478,0,0.81,0.345,1.015,1.05l0.15,0.52c0.608,2.112,0.862,2.972,2.273,2.815
			c0.379-0.044,0.708-0.063,1.002-0.063c1.256,0,1.974,0.4,2.259,1.256c0.343,1.032,0.64,1.923,3.356,1.923
			c1.991,0,2.253,0.669,2.532,1.38c0.115,0.293,0.233,0.599,0.498,0.862c0.297,0.297,0.454,0.33,0.545,0.33
			c0.111,0,0.222-0.057,0.361-0.131c0.219-0.117,0.489-0.26,0.917-0.26c0.096,0,0.198,0.006,0.301,0.021
			c1.33,0.192,1.708,0.57,2.828,1.69c0.364,0.364,0.588,0.662,0.767,0.904c0.367,0.495,0.476,0.636,1.134,0.526
			c0.227-0.038,0.461-0.089,0.693-0.139c0.469-0.102,0.909-0.196,1.29-0.196c0.457,0,0.757,0.144,0.913,0.438
			c0.133,0.256,1.34,2.482,2.792,2.482c0.175,0,0.35-0.033,0.519-0.099c0.48-0.188,0.82-0.448,1.095-0.658
			c0.3-0.228,0.537-0.41,0.82-0.41c0.391,0,0.775,0.345,1.369,1.229c0.407,0.604,0.835,0.911,1.271,0.911
			c0.501,0,0.938-0.386,1.258-0.669c0.202-0.179,0.336-0.297,0.467-0.304c0.042-0.003,0.077-0.007,0.116-0.013
			c0.363-0.043,0.767-0.015,2.175,1.012c0.484,0.356,0.924,0.528,1.341,0.528c0.391,0,0.719-0.146,1.037-0.29
			c0.277-0.123,0.539-0.24,0.829-0.265C71.846,49.929,71.875,49.927,71.904,49.927z"/>
	</g>
	<g>
		<path fill="#F5F5F6" d="M90.35,43.938c0,0.551-0.551,2.201-1.466,3.302c-0.288,0.349-0.376,0.917-0.421,1.621
			c-1.036,0.416-2.862-1.437-3.646-1.437c-1.286,0-3.82,1.286-6.753,1.102c-2.936-0.185-2.752-0.366-4.953-1.102
			c-2.201-0.734,0,0-2.75-1.285c-2.752-1.281-2.752-0.915-5.503-1.101c-2.752-0.181-1.837-0.55-3.303-1.467
			c-1.469-0.919-2.386-1.834-4.036-2.016c-1.65-0.185-2.937-0.369-4.217-0.733c-1.286-0.37,0,0-2.752-1.836
			c-2.751-1.832-1.651-1.102-2.751-1.832c-1.101-0.735-2.385-1.47-3.67-2.519c-1.282-1.048-0.917-0.968-2.201-1.519
			c-1.282-0.551-2.2-0.185-2.567-0.916c-0.365-0.735-1.285-2.936-3.301-2.751c-2.017,0.182-0.917-0.55-1.285-2.143
			c-0.366-1.596-1.651-0.426-3.118-0.058c-1.466,0.365-1.101-1.101-0.916-1.835c0.182-0.735-0.369-2.386-2.111-1.836
			c-1.741,0.551-2.292,1.285-2.476-1.101c-0.184-2.382-0.735-1.65-2.751-0.916c-2.017,0.732-2.017-0.916-2.017-2.937
			c0-2.016-0.882-2.493-3.12-2.381c-1.88,0.092-2.155,0.61-4.584,0c-1.115-0.281-2.026-0.912-2.972-1.202
			c-1.417-0.436-2.496-1.801-3.597-1.801c-0.826,0-1.867,0.612-2.525,0c0.042-0.204,0.078-0.424,0.104-0.668
			c0.366-3.302,1.285-6.419,5.503-7.52c4.217-1.101,30.823-5.013,36.683-3.21c0,0,11.925,2.11,14.952,3.67
			c1.637,0.842,13.848,5.96,19.714,14.948c4.374,6.691,6.423,12.105,6.973,15.593C89.069,39.536,90.35,43.387,90.35,43.938z"/>
	</g>
	<g>
		<path fill="#F5F5F6" d="M87.235,54.395c-1.807,2.77-6.97,10.638-19.811,12.655c-12.842,2.021-21.645,0.551-31.915-5.686
			C25.238,55.127,13.314,45.773,7.63,36.604C1.942,27.43,0.842,20.646,1.577,17.894c0.676-2.547,2.459-2.108,3.012-4.652
			c0.658,0.612-0.091,0.894-0.025,1.717c0.149,1.896,0.549,2.247,2.524,3.04c-0.11,1.429,4.917,0.75,5.31,1.729
			c0.735,1.835,0,4.477,1.285,3.982c1.282-0.496,0.551-0.862,1.651,1.89c1.101,2.751,0.55,2.383,2.201,2.383
			c1.651,0,1.466,0.917,2.382,1.834c0.919,0.917,0.185,1.651,2.02,0.917c1.832-0.731,2.567-1.602,3.482,0.3
			c0.919,1.9,0.735,1.35,2.386,1.35c1.651,0,1.285,1.39,2.751,2.253c1.467,0.868,3.486-2.515,4.218,0
			c0.735,2.519,0.919,3.615,2.57,3.434c1.651-0.185,2.751,0,3.117,1.102c0.366,1.101,0.735,2.016,3.486,2.016
			c2.751,0,2.017,1.285,2.932,2.2c0.919,0.92,0.919-0.18,2.203,0c1.283,0.185,1.65,0.551,2.751,1.651
			c1.102,1.101,0.918,1.651,2.018,1.471c1.102-0.185,2.383-0.666,2.752,0.032c0.365,0.698,1.831,3.089,3.483,2.445
			c1.65-0.646,1.65-2.07,3.119,0.108c1.466,2.182,2.752,0.023,3.118,0c0.365-0.019,0.55-0.23,2.2,0.974
			c1.652,1.208,2.386,0.077,3.303,0c0.915-0.077,0.881,1.362,2.935,1.759c6.42,1.238,9.95-1.101,11.233-1.101
			C86.782,50.727,87.853,53.442,87.235,54.395z"/>
	</g>
	<g>
		<path fill="#FFFFFF" d="M7.17,12.345c0,0,3.852-2.338,8.529-2.751c4.677-0.413,8.941-1.514,11.28-1.514
			c2.338,0,4.677,4.127,5.641,2.132c0.962-1.995,1.375-4.333-7.292-4.196C16.662,6.155,2.768,10.693,7.17,12.345z"/>
	</g>
	<g>
		<path fill="#FFFFFF" d="M71.55,16.885c0,0-0.962,2.063,0,4.126c0.964,2.064,2.201,2.477,5.091,5.365
			c2.889,2.889,3.026,4.216,4.814,7.406c1.789,3.188,4.266,5.813,3.026,0.854c-1.237-4.957,1.102-4.957-4.539-10.735
			C74.302,18.123,74.028,16.609,71.55,16.885z"/>
	</g>
	<g>
		<path fill="#FFFFFF" d="M26.843,35.318c0,0-0.688,2.063-2.477,3.302C22.578,39.858,24.179,37.05,26.843,35.318z"/>
	</g>
	<g>
		<path fill="#FFFFFF" d="M37.71,40.57c-0.419,0.085-2.063,1.901-2.063,2.59c0,0.688-0.413,1.238,1.031,0
			C38.123,41.921,39.636,40.181,37.71,40.57z"/>
	</g>
	<g>
		<path fill="#FFFFFF" d="M3.456,18.536c0,0-0.896,4.952,1.134,5.778c2.03,0.825,1.724,2.338,1.74,4.952
			C6.345,31.879,0.945,22.875,3.456,18.536z"/>
	</g>
	<g>
		<path fill="#FFFFFF" d="M68.663,55.954c0,0,1.375-3.205,0-3.941C67.287,51.276,67.837,54.027,68.663,55.954z"/>
	</g>
	<g>
		<path fill="#FFFFFF" d="M61.921,50.727c0,0,0.963,0.688,0,2.613C60.958,55.267,60.636,52.357,61.921,50.727z"/>
	</g>
	<g>
		<path fill="#FFFFFF" d="M86.608,54.68c-0.246-0.538-0.354-1.062-0.454-1.522c-0.222-1.049-0.271-1.27-1.289-1.194
			c-0.515,0.036-1.258,0.303-1.977,0.56c-1.065,0.383-2.164,0.775-3.127,0.703c-2.244-0.173-4.345-0.507-5.181-0.734
			c-1.3-0.355-1.907-0.996-2.309-1.421c-0.269-0.283-0.325-0.321-0.388-0.315c-0.151,0.012-0.341,0.097-0.562,0.194
			c-0.684,0.306-1.715,0.765-3.204-0.325c-1.235-0.901-1.463-0.874-1.585-0.859c-0.002,0-0.004,0-0.006,0.001
			c-0.041,0.034-0.09,0.078-0.132,0.114c-0.414,0.367-1.107,0.982-2.031,0.862c-0.638-0.081-1.221-0.507-1.729-1.264
			c-0.4-0.594-0.605-0.784-0.693-0.845c-0.078,0.046-0.208,0.146-0.309,0.224c-0.3,0.229-0.71,0.54-1.295,0.771
			c-2.266,0.882-3.984-2.083-4.333-2.748c-0.204-0.08-0.919,0.076-1.308,0.16c-0.245,0.053-0.493,0.105-0.733,0.146
			c-1.079,0.18-1.466-0.221-1.931-0.848c-0.173-0.231-0.366-0.493-0.687-0.813c-1.08-1.082-1.306-1.307-2.363-1.457
			c-0.34-0.049-0.497,0.035-0.714,0.148c-0.483,0.257-1.069,0.464-1.876-0.343c-0.386-0.386-0.551-0.808-0.684-1.147
			c-0.223-0.567-0.335-0.854-1.763-0.854c-3.063,0-3.687-1.125-4.139-2.486c-0.14-0.421-0.451-0.849-2.389-0.635
			c-2.112,0.233-2.526-1.215-3.157-3.407l-0.149-0.518c-0.11-0.378-0.217-0.454-0.218-0.454c-0.144-0.027-0.66,0.264-0.936,0.423
			c-0.75,0.426-1.776,1.009-2.754,0.431c-0.771-0.453-1.142-1.045-1.411-1.476c-0.319-0.51-0.428-0.681-0.991-0.681
			c-0.333,0-0.588,0.023-0.792,0.045c-1.238,0.12-1.48-0.27-2.211-1.784c-0.454-0.94-0.454-0.94-1.662-0.379
			c-0.277,0.128-0.591,0.275-0.947,0.418c-1.047,0.419-1.889,0.65-2.385-0.48c-0.084-0.195-0.165-0.378-0.375-0.589
			c-0.344-0.345-0.556-0.685-0.726-0.959c-0.323-0.518-0.419-0.675-1.17-0.675c-0.192,0-0.353,0.006-0.49,0.01
			c-1.237,0.039-1.419-0.311-1.862-1.534c-0.122-0.332-0.271-0.747-0.488-1.29c-0.286-0.715-0.455-1.235-0.563-1.587
			c-0.063,0.027-0.129,0.054-0.202,0.082c-0.526,0.203-0.895,0.079-1.113-0.06c-0.592-0.379-0.642-1.159-0.704-2.145
			c-0.042-0.666-0.09-1.415-0.308-2.036c-0.26-0.125-0.968-0.292-1.547-0.429c-2.102-0.498-4.981-1.18-5.933-3.159
			c-0.458-0.954-0.393-2.064,0.192-3.298l1.243,0.589c-0.404,0.853-0.468,1.543-0.194,2.112c0.666,1.388,3.28,2.007,5.009,2.417
			c1.429,0.339,2.216,0.525,2.459,1.13c0.34,0.849,0.401,1.813,0.45,2.586c0.02,0.311,0.045,0.707,0.092,0.951
			c0.128-0.055,0.229-0.107,0.315-0.151c0.221-0.115,0.525-0.272,0.886-0.12c0.376,0.16,0.476,0.485,0.612,0.938
			c0.103,0.344,0.26,0.863,0.583,1.667c0.226,0.565,0.386,1.01,0.503,1.333c0.09,0.248,0.182,0.501,0.243,0.634
			c0.075,0,0.184-0.003,0.282-0.006c0.148-0.005,0.324-0.011,0.534-0.011c1.515,0,1.953,0.704,2.339,1.325
			c0.154,0.248,0.3,0.48,0.531,0.712c0.38,0.379,0.544,0.738,0.651,0.985c0.118-0.033,0.312-0.097,0.625-0.221
			c0.322-0.127,0.618-0.267,0.879-0.388c1.198-0.557,2.439-1.133,3.48,1.027c0.161,0.334,0.424,0.876,0.553,1.038
			c0.068-0.001,0.187-0.013,0.286-0.024c0.222-0.021,0.527-0.052,0.927-0.052c1.325,0,1.786,0.736,2.156,1.328
			c0.237,0.378,0.461,0.737,0.944,1.021c0.291,0.173,0.842-0.141,1.375-0.445c0.656-0.372,1.402-0.796,2.136-0.499
			c0.478,0.193,0.811,0.633,1.018,1.344l0.15,0.523c0.666,2.313,0.808,2.518,1.684,2.419c0.958-0.105,3.206-0.358,3.845,1.569
			c0.309,0.93,0.514,1.545,2.833,1.545c2.188,0,2.673,0.783,3.043,1.727c0.107,0.275,0.193,0.492,0.376,0.675
			c0.078,0.079,0.134,0.123,0.169,0.149c0.028-0.015,0.063-0.032,0.091-0.047c0.287-0.154,0.769-0.408,1.552-0.297
			c1.514,0.218,2.023,0.728,3.141,1.845c0.392,0.394,0.639,0.724,0.818,0.967c0.096,0.128,0.225,0.301,0.273,0.329l0,0
			c0,0,0.07,0.024,0.328-0.019c0.219-0.034,0.443-0.085,0.668-0.133c1.013-0.218,2.27-0.491,2.806,0.523
			c0.38,0.73,1.595,2.526,2.626,2.128c0.405-0.16,0.699-0.387,0.958-0.585c0.367-0.28,0.784-0.601,1.35-0.507
			c0.606,0.102,1.093,0.655,1.631,1.454c0.271,0.402,0.541,0.64,0.763,0.667c0.301,0.04,0.675-0.289,0.945-0.526
			c0.257-0.228,0.478-0.423,0.798-0.443c0.033-0.001,0.057-0.005,0.082-0.009c0.616-0.072,1.134,0.066,2.566,1.113
			c0.846,0.622,1.237,0.445,1.832,0.182c0.291-0.13,0.622-0.277,1.007-0.31c0.742-0.063,1.161,0.382,1.5,0.74
			c0.349,0.368,0.745,0.786,1.674,1.038c0.664,0.182,2.631,0.518,4.923,0.691c0.67,0.052,1.629-0.293,2.559-0.626
			c0.84-0.303,1.637-0.587,2.343-0.637c2.216-0.159,2.514,1.253,2.731,2.282c0.086,0.41,0.177,0.835,0.359,1.234L86.608,54.68z"/>
	</g>
	<g>
		<path fill="#FFFFFF" d="M88.422,49.547c-0.493-0.03-0.99-0.308-1.569-0.627c-0.645-0.357-1.374-0.764-2.08-0.81
			c-0.644-0.042-1.371,0.166-2.141,0.387c-0.932,0.264-1.894,0.539-2.912,0.451c-3.277-0.285-5.311-0.569-6.216-0.872
			c-1.256-0.419-1.256-0.419-1.438-0.602c-0.031-0.024-0.24-0.176-1.389-0.711c-1.98-0.925-2.377-0.935-3.688-0.969
			c-0.406-0.013-0.915-0.026-1.569-0.07c-1.938-0.127-2.327-0.359-2.872-0.946c-0.169-0.183-0.344-0.37-0.746-0.622
			c-0.357-0.223-0.674-0.439-0.979-0.649c-0.936-0.64-1.674-1.147-2.769-1.268c-1.704-0.19-3.022-0.384-4.333-0.757
			c-0.673-0.193-0.813-0.233-1.121-0.543c-0.164-0.162-0.504-0.501-1.823-1.382l-2.749-1.832c-0.299-0.198-0.607-0.396-0.927-0.6
			c-0.859-0.547-1.832-1.169-2.798-1.957c-0.388-0.315-0.63-0.535-0.809-0.694c-0.382-0.343-0.422-0.381-1.228-0.725
			c-0.46-0.198-0.877-0.258-1.246-0.311c-0.606-0.089-1.294-0.188-1.666-0.93l-0.083-0.171c-0.586-1.211-1.299-2.315-2.541-2.203
			c-0.784,0.069-1.342,0.038-1.707-0.331c-0.366-0.369-0.317-0.854-0.278-1.244c0.031-0.314,0.066-0.669-0.033-1.099
			c-0.041-0.179-0.085-0.258-0.104-0.285c-0.165-0.017-0.639,0.177-0.955,0.307c-0.364,0.151-0.779,0.321-1.222,0.432
			c-0.832,0.208-1.302-0.044-1.55-0.292c-0.636-0.638-0.364-1.726-0.201-2.376c0.044-0.177-0.02-0.65-0.301-0.912
			c-0.078-0.073-0.315-0.296-0.936-0.101c-0.288,0.091-0.547,0.19-0.776,0.278c-0.678,0.258-1.263,0.48-1.812,0.132
			c-0.54-0.343-0.699-1.062-0.78-2.113c-0.045-0.575-0.106-0.849-0.148-0.976c-0.178,0.046-0.489,0.174-0.748,0.283
			c-0.271,0.113-0.578,0.24-0.935,0.37c-0.864,0.314-1.534,0.292-2.047-0.068c-0.893-0.626-0.893-1.963-0.893-3.514
			c0-0.955-0.349-1.804-0.848-2.063c-0.32-0.166-0.72-0.084-1.189,0.245c-1.182,0.826-1.85,0.663-2.665,0.342
			c-0.495-0.195-1.056-0.417-2.201-0.226c-1.959,0.325-3.166-0.533-4.333-1.36c-1.31-0.929-2.547-1.807-5.09-1.369l-0.234-1.355
			c3.106-0.536,4.778,0.649,6.12,1.602c1.068,0.757,1.912,1.356,3.313,1.125c1.52-0.252,2.335,0.069,2.931,0.304
			c0.54,0.212,0.704,0.277,1.372-0.189c1.21-0.848,2.156-0.577,2.613-0.338c0.98,0.51,1.589,1.768,1.589,3.284
			c0,0.917,0,2.173,0.306,2.387c0.085,0.06,0.337,0.066,0.788-0.098c0.327-0.119,0.62-0.24,0.876-0.348
			c0.797-0.33,1.426-0.592,2.007-0.236c0.548,0.336,0.708,1.05,0.789,2.094c0.046,0.592,0.109,0.874,0.153,1.002
			c0.147-0.037,0.381-0.127,0.579-0.201c0.247-0.094,0.525-0.2,0.851-0.303c1.207-0.382,1.954,0.092,2.292,0.409
			c0.667,0.625,0.854,1.604,0.694,2.247c-0.132,0.525-0.184,0.873-0.155,1.04c0.046-0.002,0.122-0.01,0.237-0.038
			c0.343-0.086,0.694-0.229,1.032-0.369c0.716-0.295,1.458-0.6,2.116-0.26c0.399,0.207,0.672,0.612,0.807,1.201
			c0.15,0.65,0.096,1.188,0.061,1.544c-0.002,0.029-0.006,0.059-0.008,0.091c0.108,0.001,0.266-0.004,0.5-0.025
			c2.357-0.217,3.481,2.103,3.903,2.977l0.076,0.153c0.042,0.082,0.153,0.114,0.631,0.184c0.43,0.062,0.966,0.139,1.591,0.408
			c0.939,0.402,1.103,0.515,1.605,0.965c0.177,0.16,0.398,0.358,0.76,0.654c0.903,0.736,1.799,1.309,2.667,1.862
			c0.328,0.209,0.646,0.411,0.95,0.615l2.75,1.831c1.433,0.956,1.822,1.344,2.031,1.555c0.018,0.018,0.033,0.033,0.048,0.046
			c0.066,0.026,0.259,0.083,0.481,0.146c1.216,0.347,2.473,0.53,4.104,0.712c1.437,0.158,2.388,0.809,3.395,1.501
			c0.295,0.201,0.599,0.409,0.93,0.616c0.557,0.349,0.829,0.638,1.026,0.851c0.26,0.281,0.379,0.409,1.956,0.513
			c0.625,0.042,1.1,0.056,1.516,0.065c1.407,0.039,1.99,0.054,4.232,1.099c1.225,0.571,1.547,0.775,1.719,0.93
			c0.126,0.048,0.443,0.151,0.96,0.325c0.544,0.181,2.009,0.468,5.9,0.806c0.765,0.065,1.566-0.163,2.415-0.404
			c0.849-0.242,1.729-0.49,2.606-0.435c1.016,0.065,1.925,0.57,2.659,0.978c0.359,0.197,0.805,0.447,0.986,0.459L88.422,49.547z"/>
	</g>
</g>
</svg>
